<svg width="1200" height="520" viewBox="0 0 1200 520" fill="none" xmlns="http://www.w3.org/2000/svg">
  <defs>
    <radialGradient id="bgGlow" cx="0" cy="0" r="1" gradientUnits="userSpaceOnUse" gradientTransform="translate(600 190) rotate(90) scale(180 360)">
      <stop stop-color="#6CF2FF" stop-opacity="0.35"/>
      <stop offset="1" stop-color="#6CF2FF" stop-opacity="0"/>
    </radialGradient>
    <linearGradient id="ringA" x1="435" y1="115" x2="765" y2="285" gradientUnits="userSpaceOnUse">
      <stop stop-color="#9AFBFF"/>
      <stop offset="0.45" stop-color="#38DAEB"/>
      <stop offset="1" stop-color="#1D4A8D"/>
    </linearGradient>
    <linearGradient id="ringB" x1="470" y1="130" x2="730" y2="280" gradientUnits="userSpaceOnUse">
      <stop stop-color="#C7FFFF"/>
      <stop offset="0.6" stop-color="#49D7E3"/>
      <stop offset="1" stop-color="#12305E"/>
    </linearGradient>
    <filter id="soft" x="350" y="40" width="500" height="320" filterUnits="userSpaceOnUse" color-interpolation-filters="sRGB">
      <feGaussianBlur stdDeviation="10"/>
    </filter>
  </defs>

  <ellipse cx="600" cy="190" rx="340" ry="180" fill="url(#bgGlow)"/>

  <g filter="url(#soft)" opacity="0.7">
    <ellipse cx="600" cy="190" rx="155" ry="105" stroke="#44E7FF" stroke-opacity="0.5" stroke-width="14"/>
  </g>

  <ellipse cx="600" cy="190" rx="170" ry="116" stroke="url(#ringA)" stroke-width="28"/>
  <ellipse cx="600" cy="190" rx="132" ry="90" stroke="url(#ringB)" stroke-width="24"/>
  <ellipse cx="600" cy="190" rx="92" ry="63" fill="#0F1C38"/>
  <ellipse cx="600" cy="190" rx="82" ry="55" fill="#13284D"/>

  <g opacity="0.45" stroke="#5EEAFF" stroke-width="4" stroke-linecap="round">
    <path d="M430 155C390 168 368 180 350 200"/>
    <path d="M770 150C812 164 840 179 855 198"/>
    <path d="M436 228C392 242 366 255 350 276"/>
    <path d="M763 226C809 241 836 256 850 274"/>
  </g>

  <text x="600" y="405" text-anchor="middle" fill="#56E6F5" font-size="88" letter-spacing="22" font-family="Inter, Arial, sans-serif" font-weight="600">SHUNYA</text>
  <line x1="390" y1="450" x2="500" y2="450" stroke="#56E6F5" stroke-opacity="0.75" stroke-width="4"/>
  <line x1="700" y1="450" x2="810" y2="450" stroke="#56E6F5" stroke-opacity="0.75" stroke-width="4"/>
</svg>
